<svg width="90" height="86" viewBox="0 0 90 86" fill="none" xmlns="http://www.w3.org/2000/svg">
<path fill-rule="evenodd" clip-rule="evenodd" d="M45.8619 0.311646L48.3753 3.18776H48.3756L45.862 6.21471L43.3487 3.18776L45.8619 0.311646ZM19.0299 21.5627C19.7261 18.4591 16.841 20.0832 16.0615 20.6636H16.0614C17.0133 18.098 16.0634 17.1196 15.2695 16.3019C14.772 15.7894 14.3358 15.34 14.4675 14.6027C14.6136 13.7842 15.8052 13.618 16.959 13.4569C17.6906 13.3549 18.4071 13.2549 18.8325 12.9923C19.3514 12.6721 19.8956 12.105 20.4434 11.5341C21.9501 9.96393 23.4847 8.36473 24.5972 11.7914C21.7705 14.3654 23.4162 18.1544 27.0048 18.1544C27.0048 18.1544 27.0248 18.71 26.9934 18.754C22.7116 18.5487 21.2187 15.4629 22.0007 12.9923C22.1395 12.5553 17.61 12.5442 17.61 15.3237C17.61 16.2465 18.2749 16.9287 18.9459 17.6172C19.6294 18.3186 20.3194 19.0265 20.3194 20.0019C20.3194 20.9022 19.3314 21.5627 19.0299 21.5627ZM68.4665 12.9923C68.3277 12.5553 72.8571 12.5443 72.8571 15.3237C72.8571 16.2465 72.1923 16.9287 71.5213 17.6172C70.8378 18.3186 70.1479 19.0265 70.1479 20.0019C70.1479 20.9022 71.1358 21.5627 71.4389 21.5627C70.7412 18.4591 73.6266 20.0832 74.4057 20.6636C73.4539 18.0983 74.4042 17.1197 75.198 16.3021C75.6958 15.7895 76.1322 15.3401 76 14.6027C75.8538 13.7841 74.6622 13.6179 73.5082 13.4569C72.7767 13.3548 72.0604 13.2549 71.6348 12.9923C71.116 12.6721 70.5719 12.105 70.0241 11.5341C68.5174 9.96393 66.9828 8.36473 65.8702 11.7914C68.6982 14.3657 67.0526 18.1544 63.4626 18.1544C63.4626 18.1544 63.4424 18.71 63.4753 18.754C67.7575 18.5486 69.2502 15.463 68.4666 12.9923H68.4665ZM56.4239 19.9939C61.0325 19.9788 65.378 19.9645 65.9273 22.8877V22.8874C66.1204 23.9113 65.6252 25.4711 65.0905 25.9194C64.9945 25.5951 64.4966 24.534 62.92 24.2961C54.9587 23.0996 48.3117 35.3044 54.3133 40.239C54.4032 40.3139 54.3515 40.4525 54.2291 40.4525H42.2218C42.3305 40.4528 42.4417 40.5168 42.4976 40.6643L43.8079 44.4124C43.6358 44.4289 43.4721 44.455 43.3487 44.491L48.2902 60.5229C48.6208 60.3299 48.9309 60.1106 49.2119 59.8699L49.6324 61.0727C48.2753 61.7708 44.223 62.3259 42.1599 60.2447C41.4467 60.5907 39.5785 60.2614 39.5785 58.6264C39.5785 58.4743 39.6128 58.2133 39.6827 57.944C39.6814 58.0199 39.6866 58.0926 39.6985 58.1617H39.6986C39.8435 58.0533 40.0157 57.9565 40.2084 57.8706C40.221 58.2529 40.4784 58.3342 40.8914 58.3365C40.8772 58.1038 40.8781 57.868 40.8915 57.6318C41.6172 57.4332 42.4746 57.341 43.2448 57.341C42.512 56.6427 42.2798 54.6155 42.6535 53.4392C42.3114 53.7909 41.9835 54.1451 41.6786 54.4952C41.8362 54.1293 41.9958 53.8182 42.1351 53.5861C42.3472 53.2311 42.3472 52.9696 42.2234 52.601C42.0361 52.0464 41.9846 51.5463 42.0686 51.1142C41.8206 51.1142 41.7579 51.4445 41.6807 51.8506C41.5575 52.4997 41.3974 53.3429 40.3859 53.3429C40.8279 52.6811 40.6805 52.1175 40.2871 51.5463C39.7229 50.7214 39.739 49.9916 40.2796 49.5609C40.8176 49.1333 41.9493 49.3887 42.6728 50.0912C42.9795 49.7467 43.9135 49.5065 44.4086 49.5065C44.1965 49.2483 44.1182 48.9656 44.1861 48.6484C42.8215 48.7573 40.4625 47.8523 40.4625 46.4619C40.4625 45.418 42.1304 44.6294 43.1677 44.3725L41.9565 40.8642L41.9567 40.8638C41.8779 40.6175 42.0455 40.4529 42.2201 40.4525H36.2408C36.1169 40.4525 36.0656 40.3139 36.157 40.239C42.1569 35.3044 35.51 23.0996 27.5486 24.2961C25.9734 24.534 25.4737 25.5951 25.3782 25.9195C24.8432 25.4711 24.3481 23.9111 24.5396 22.8877C25.0901 19.9645 29.436 19.9788 34.0448 19.9939C37.0612 20.0038 40.1901 20.0141 42.4413 19.2014C42.5519 20.6113 40.6893 22.8704 38.9094 23.7065C41.9521 26.3332 44.6841 31.6254 45.2335 38.0909C45.7847 31.6254 48.5165 26.3332 51.5595 23.7065C49.7793 22.8704 47.9183 20.6113 48.0274 19.2014C50.2786 20.0141 53.4076 20.0038 56.4239 19.9939ZM41.6786 54.4952C40.5222 55.8233 39.6971 57.0927 39.6827 57.944C39.7432 57.7107 39.8306 57.4711 39.9454 57.2908C40.1694 56.9388 40.3388 57.1426 40.2682 57.4285C40.2236 57.6083 40.2046 57.7535 40.2084 57.8706C40.4153 57.7784 40.6458 57.699 40.8915 57.6318C40.9561 56.4937 41.312 55.3463 41.6786 54.4952ZM49.2119 59.8699C50.1327 59.0811 50.7413 58.0627 50.7413 56.9883C50.7413 55.7926 49.2522 56.1892 48.5287 57.1218C48.4636 56.6974 48.4005 56.2821 48.3384 55.8734L48.3371 55.8644V55.8643V55.8642C48.1779 54.8169 48.0254 53.8131 47.8633 52.8116C47.8016 52.4268 47.9668 52.2888 48.2282 52.1728L48.2278 52.1727C49.1055 51.7882 50.4808 52.0995 50.434 53.5972C50.4227 53.9364 50.8256 53.9364 50.8547 53.5897C51.1173 51.3474 49.8355 50.7011 48.4944 50.9641C48.4412 50.7179 48.3911 50.4817 48.3425 50.2523L48.3404 50.2432V50.2427C48.2375 49.7572 48.1411 49.3027 48.0361 48.8509C47.9124 48.3106 47.8668 47.2957 48.396 47.2957C48.6462 47.2957 48.5889 48.021 48.5531 48.4741L48.553 48.4744C48.5479 48.5381 48.5434 48.5966 48.5401 48.6468C48.516 49.0035 48.6246 49.2195 48.8697 49.2297C49.0226 49.2371 49.2133 49.0066 49.3269 48.8537C50.0949 47.8272 50.2728 46.2384 49.3736 45.472C48.6212 44.8285 46.7369 45.3074 46.2189 46.2237C46.1408 45.8785 45.7669 45.3087 45.5874 45.0604C45.4134 44.8184 45.3679 44.6523 45.6091 44.4394C45.7228 44.3366 46.0663 43.9329 46.0663 43.5157C46.0663 43.2691 45.9046 42.8137 45.3908 42.8137C44.9853 42.8137 44.5345 43.1457 44.5345 43.8857C44.5345 44.0504 44.5686 44.2268 44.6582 44.4161C44.4903 44.3833 44.1341 44.3808 43.8079 44.4124L49.2119 59.8699ZM55.9161 27.4126C57.1872 27.0055 59.4026 26.9734 60.943 28.3748L60.9429 28.3747C60.9429 26.8763 59.6949 25.5454 59.2597 25.3761C58.688 25.4816 56.7489 26.3516 55.9161 27.4126ZM29.5246 28.3748C31.0665 26.9734 33.2818 27.0055 34.5515 27.4126C33.7221 26.3516 31.7795 25.4816 31.2095 25.3761C30.7743 25.5454 29.5247 26.8763 29.5247 28.3747L29.5246 28.3748ZM60.9416 9.78358V9.7835V9.78341V9.78358ZM60.9416 9.7835L59.057 7.39532L57.1742 9.78358L59.057 12.1178L60.9416 9.7835ZM72.2535 63.0384L72.2536 63.0387V63.0383L72.2535 63.0384ZM69.7402 60.5229L72.2535 63.0384L69.7402 65.2453L67.2267 63.0387L69.7402 60.5229ZM33.2935 9.7835L31.4087 7.39532L29.5258 9.7835L31.4087 12.1178L33.2933 9.7835H33.2935ZM34.6609 19.2012H28.6576C28.6403 19.1803 27.6035 17.9134 27.3424 17.2834C26.3956 14.9975 27.6042 13.9313 29.3734 13.9313L31.6585 15.7961L33.9436 13.9313C35.7131 13.9313 36.9215 14.9975 35.9749 17.2834C35.8541 17.5756 35.566 18.005 35.2901 18.3823C37.4204 18.1188 40.1395 16.8059 40.7376 13.9929C40.7376 13.9929 39.162 11.7415 38.7683 10.8303C37.3475 7.55394 39.1602 6.21471 41.8111 6.21471L45.2333 9.8371L48.6559 6.21471C51.3067 6.21471 53.1194 7.55407 51.7002 10.8303C51.305 11.7414 49.7309 13.9928 49.7309 13.9928C50.3275 16.8057 53.0465 18.1187 55.1768 18.3822C54.9028 18.0049 54.6131 17.5756 54.4922 17.2833C53.544 14.9974 54.7555 13.9312 56.5232 13.9312L58.8084 15.7959L61.0937 13.9312C62.8614 13.9312 64.0732 14.9974 63.1247 17.2833C62.8614 17.9185 61.8113 19.2013 61.8113 19.2013H55.8076C50.7582 19.2013 48.4886 16.4119 47.8023 13.9928H42.6662C41.9799 16.4118 39.7084 19.2012 34.6609 19.2012ZM88.9116 35.4363C87.8112 35.9754 81.3572 38.9008 73.0895 37.8188C73.1752 37.4372 73.2477 37.0529 73.3073 36.6667C78.8098 36.0298 83.2826 35.127 86.133 33.5928C89.3822 31.843 90.8031 27.6661 89.163 24.5585C89.1206 24.4801 89.0029 24.4662 88.9441 24.5317C88.0455 25.5327 82.3942 31.4805 73.4913 33.3296C73.4684 32.8833 73.4263 32.4384 73.3647 31.9956C77.6889 29.6228 81.9104 26.8889 83.9212 24.3891C86.96 20.6093 86.6804 15.7885 83.7889 13.3305C83.7588 13.3056 83.7191 13.2944 83.68 13.2997C83.6408 13.3051 83.6059 13.3265 83.5843 13.3585C82.6695 14.8184 74.1063 28.2103 64.7044 33.9915C64.5898 34.0625 64.4741 34.1321 64.3576 34.2002C64.0882 34.3584 64.059 34.6971 64.2884 34.8986C65.3721 35.849 66.046 37.1719 66.046 38.6404C66.046 41.1935 64.0117 43.317 61.323 43.7776C59.9565 44.0336 57.984 43.9594 56.0895 43.3535C56.0043 43.3268 55.9161 43.3813 55.9161 43.464V51.5508C55.9161 51.6808 56.1207 51.713 56.169 51.5883C57.3206 48.6362 60.7683 48.009 62.276 48.009C62.8188 51.1643 63.788 53.7778 65.047 55.1845C67.0971 57.4704 70.4451 57.4383 71.8968 55.8578C71.9207 55.8316 71.931 55.7963 71.9247 55.762C71.9183 55.7276 71.8961 55.6978 71.8643 55.6813C71.0114 55.2069 66.1309 52.308 65.1542 47.557C65.5399 47.4282 65.9162 47.2826 66.2767 47.1103C67.8519 49.6329 70.1448 51.8795 71.9909 52.7376C75.0915 54.1767 77.9301 53.4768 79.1892 51.3701C79.2348 51.2958 79.179 51.2035 79.0863 51.1951C77.1682 51.0467 71.2819 49.4145 68.7755 45.4377C69.0625 45.1827 69.3434 44.9168 69.6052 44.6341C72.2276 46.5658 75.9359 48.2736 78.5907 48.6221C81.697 49.0308 85.2169 48.0719 85.3022 44.5767C85.3036 44.5066 85.239 44.4492 85.1627 44.4537C84.0578 44.5178 76.7462 44.8259 71.5364 41.9324C71.7174 41.5994 71.8862 41.2605 72.0424 40.9161C72.0424 40.9161 79.9146 42.7164 83.6444 42.1199C87.3511 41.5279 89.5222 38.8543 89.1028 35.5285C89.0911 35.4455 88.9912 35.3967 88.9117 35.4359L88.9116 35.4363ZM18.9309 41.9324C18.7496 41.5996 18.5803 41.2605 18.4236 40.9161V40.9157C18.4236 40.9157 10.5515 42.7161 6.82291 42.1195C3.11628 41.5275 0.947008 38.8566 1.36449 35.5306C1.37472 35.4467 1.47481 35.3963 1.5572 35.4368C2.66616 35.9801 9.11742 38.8987 17.3763 37.8179C17.2907 37.4362 17.2181 37.0521 17.1587 36.6659C11.6562 36.0288 7.1833 35.126 4.33278 33.5918C1.08649 31.842 -0.334202 27.6677 1.30256 24.5587C1.34362 24.4803 1.46444 24.4663 1.52471 24.5349C2.43226 25.5426 8.07895 31.4809 16.9747 33.3287C16.997 32.8825 17.0386 32.4375 17.0997 31.9948C12.7766 29.6219 8.55547 26.8879 6.54477 24.388C3.50598 20.6098 3.78687 15.7903 6.67416 13.3307C6.73747 13.2776 6.84033 13.2915 6.88318 13.3601C7.80537 14.8301 16.3644 28.2126 25.7603 33.9909C25.876 34.0618 25.9928 34.1314 26.1103 34.1995C26.3781 34.3576 26.4089 34.6964 26.178 34.8966C25.0955 35.8471 24.4205 37.1713 24.4205 38.64C24.4205 41.1932 26.4546 43.3168 29.1448 43.7772C30.5099 44.0334 32.4822 43.959 34.3767 43.3531C34.4619 43.3266 34.5515 43.3811 34.5515 43.4636V51.5506C34.5515 51.6806 34.3472 51.7129 34.2972 51.5883C33.1455 48.6362 29.6993 48.009 28.1903 48.009C27.6475 51.1642 26.6798 53.7776 25.4205 55.1845C23.3703 57.4704 20.0211 57.4383 18.5694 55.8578C18.5457 55.8315 18.5357 55.7963 18.542 55.7621C18.5482 55.7277 18.5701 55.6981 18.6017 55.6812C19.4548 55.2069 24.3351 52.308 25.3119 47.5568C24.9279 47.428 24.5514 47.2824 24.1897 47.1104C22.6144 49.6328 20.3214 51.8795 18.4769 52.7376C15.3747 54.1766 12.536 53.4766 11.2769 51.37C11.2326 51.2958 11.2871 51.2034 11.3797 51.195C13.2978 51.0466 19.1826 49.4142 21.6903 45.4376C21.4038 45.1828 21.1243 44.9168 20.8609 44.6341C18.2385 46.5658 14.5289 48.2737 11.8753 48.6222C8.76905 49.0308 5.25084 48.072 5.16375 44.5781C5.16237 44.5094 5.22707 44.4493 5.30503 44.4537C6.41399 44.5192 13.7227 44.8245 18.9309 41.9324ZM70.6734 66.4758L67.8008 64.3343C66.6546 64.981 65.8119 66.008 65.4849 67.2118C63.757 67.441 59.0455 66.4499 59.5035 65.7926C64.6671 58.9122 60.7175 54.8159 55.9711 55.0437V59.6646C55.9711 61.1485 54.6039 62.351 52.92 62.351H49.6424C47.2912 62.351 45.7605 64.59 45.7605 64.59C45.7605 64.59 44.2302 62.351 41.8788 62.351H38.601C36.916 62.351 35.5518 61.1485 35.5518 59.6646V55.0439C30.8052 54.8162 26.8525 58.9124 32.0177 65.7927C32.4714 66.4432 27.6289 67.4853 25.3574 67.2216C24.7593 66.634 23.8959 66.2634 22.9295 66.2634C22.5186 66.2635 22.1111 66.3328 21.7258 66.468C21.7258 66.468 12.8 58.4621 12.6365 58.3839L12.7102 58.2219C13.2183 57.3213 12.4406 56.3399 11.9486 56.4086C12.5201 55.7592 12.5468 52.9162 9.37638 52.2586C9.46916 52.8297 9.51622 53.9953 9.51622 53.9953C9.51622 53.9953 7.0694 52.7418 5.84073 53.8235C4.76104 55.0345 6.25929 57.2308 6.25929 57.2308C6.25929 57.2308 5.00709 57.2596 4.38984 57.2101C5.29743 60.1176 8.341 59.9117 8.9995 59.3379C8.95658 59.8006 10.0573 60.4595 10.9897 59.9308L11.3993 59.7429C11.4715 59.8347 20.1647 67.6157 20.1647 67.6157C19.7654 68.177 19.5755 68.8662 19.7064 69.6006C19.9127 70.7484 20.9221 71.6996 22.2111 71.9466C23.1214 72.1197 23.9772 71.952 24.6638 71.5719L26.9649 73.5953C27.1698 73.7711 27.4467 73.8808 27.756 73.8604C28.3187 73.8245 28.7401 73.392 28.6974 72.8967C28.6797 72.6729 28.559 72.4808 28.3924 72.3353C28.3556 72.2967 26.0486 70.2678 26.0486 70.2678C27.9516 69.0032 31.4978 68.1127 34.4411 68.1127C34.9582 68.1127 35.2011 67.6982 35.0231 67.2916C33.6897 64.2536 36.5565 62.0533 39.522 63.8447C40.8156 64.6258 42.1298 66.1647 43.1197 68.7316C38.2537 69.8478 32.1446 72.9225 30.9086 76.2791C30.4327 77.5751 32.0046 79.3416 33.9139 79.6973C33.9477 79.7044 33.983 79.6984 34.012 79.6806C34.0412 79.6627 34.0614 79.6346 34.0684 79.6025C35.0659 74.5919 40.7538 70.8579 43.7134 70.2236L43.8242 70.5052L43.9033 70.7057L43.9624 70.8551C40.7391 72.2993 37.6129 75.3455 36.7202 78.9667C36.3107 80.6251 38.2627 82.12 39.8743 82.5292C39.9552 82.5497 40.0349 82.4961 40.0393 82.4221C40.3457 77.8425 42.4803 73.9534 44.3924 72.184C44.4448 72.5298 44.4841 72.8774 44.5104 73.2259C44.5104 73.2259 42.5525 78.3943 42.5525 82.1653C42.5525 83.9196 45.3044 85.1442 45.7111 85.3158C46.2192 85.1442 48.9697 83.9196 48.9697 82.1653C48.9697 78.3942 47.0118 73.2259 47.0118 73.2259C47.0386 72.8774 47.0784 72.5298 47.1312 72.184C49.042 73.9534 51.1779 77.8411 51.4829 82.4204C51.4874 82.4947 51.5684 82.5497 51.6477 82.529C53.2611 82.1201 55.2117 80.6252 54.8035 78.9669C53.909 75.3456 50.7845 72.2996 47.5611 70.8554C47.6369 70.6619 47.6608 70.6002 47.6864 70.5346C47.7107 70.4726 47.7365 70.4071 47.8087 70.2239C50.7698 70.858 56.4563 74.5918 57.4537 79.6024C57.4608 79.6344 57.4812 79.6625 57.5102 79.6802C57.5393 79.6981 57.5747 79.7042 57.6085 79.6972C59.5161 79.3417 61.0909 77.575 60.6121 76.2792C59.3791 72.9226 53.2684 69.848 48.4025 68.7318C49.3938 66.1648 50.7079 64.6259 52.0013 63.8448C54.9655 62.0534 57.8322 64.254 56.4989 67.2919C56.3206 67.6982 56.5623 68.1127 57.0809 68.1127C60.4101 68.1127 64.5114 69.2521 66.1347 70.7799C67.172 72.2543 69.0885 73.1974 71.2513 72.9955C73.7084 72.7677 75.7121 71.0187 75.9889 68.8567C76.2306 66.9623 75.1964 65.2614 73.548 64.3349L70.6735 66.4765L70.6734 66.4758Z" fill="white"/>
</svg>
