<svg width="31" height="30" viewBox="0 0 31 30" fill="none" xmlns="http://www.w3.org/2000/svg">
<path d="M15.089 0C6.83983 0 0.173828 6.66601 0.173828 14.9152C0.173828 23.1644 6.83983 29.8304 15.089 29.8304C23.3382 29.8304 30.0042 23.1644 30.0042 14.9152C30.0875 6.66601 23.3382 0 15.089 0ZM23.7548 22.9977L20.5885 25.3308C20.4218 25.4141 20.2552 25.5808 20.0052 25.5808C19.7552 25.6641 19.5886 25.6641 19.4219 25.6641C19.4219 25.6641 19.3386 25.6641 19.2553 25.6641C19.1719 25.6641 19.0886 25.6641 19.0053 25.6641C18.7553 25.6641 18.3387 25.4975 17.7554 25.3308C17.1721 25.1642 16.5055 24.8309 15.6723 24.3309C14.839 23.831 14.0058 23.1644 13.0059 22.2478C12.006 21.3312 11.0061 20.248 10.0062 18.7481C9.17294 17.6649 8.50634 16.5817 8.00639 15.5818C7.50643 14.5819 7.08981 13.7486 6.83983 12.9154C6.58986 12.0821 6.33988 11.4155 6.25656 10.7489C6.17323 10.0823 6.08991 9.58238 6.08991 9.08243C6.08991 8.66581 6.08991 8.24918 6.17323 7.99921C6.25656 7.74923 6.25656 7.58258 6.25656 7.58258C6.33988 7.41593 6.42321 7.16596 6.50653 6.99931C6.67318 6.83266 6.75651 6.66601 6.92316 6.58268L10.1728 4.41623C10.4228 4.24958 10.6728 4.16625 10.9228 4.24958C11.0894 4.24958 11.2561 4.3329 11.3394 4.49955C11.4227 4.6662 11.5894 4.74953 11.6727 4.91618L13.2559 9.49906C13.3392 9.74903 13.3392 9.99901 13.2559 10.249C13.1725 10.499 13.0059 10.7489 12.8392 10.8323L11.6727 11.6655L11.5894 11.7488C11.5894 11.8322 11.506 11.8322 11.506 11.9155C11.506 12.2488 11.5894 12.5821 11.756 12.9987C11.8393 13.332 12.0893 13.832 12.3393 14.3319C12.5893 14.8319 13.0059 15.4985 13.5892 16.2484C14.0891 16.9983 14.5891 17.5816 15.0057 17.9982C15.4223 18.4148 15.8389 18.7481 16.0889 18.9981C16.4222 19.2481 16.5889 19.3314 16.7555 19.4147L17.0055 19.4981C17.0055 19.4981 17.0888 19.4981 17.1721 19.4981C17.2555 19.4981 17.2555 19.4981 17.3388 19.4147L18.7553 18.4148C19.0053 18.2482 19.3386 18.1649 19.6719 18.2482C19.9219 18.2482 20.0885 18.3315 20.2552 18.4982L23.9215 21.4979C24.1715 21.7478 24.3381 21.9978 24.3381 22.2478C24.1715 22.4978 24.0048 22.7477 23.7548 22.9977Z" fill="#FF0000"/>
</svg>
