<svg width="26" height="26" viewBox="0 0 26 26" fill="none" xmlns="http://www.w3.org/2000/svg">
<path d="M12.5869 0C5.62544 0 0 5.63002 0 12.5972C0 19.5643 5.62544 25.1943 12.5869 25.1943C19.5484 25.1943 25.1739 19.5643 25.1739 12.5972C25.2442 5.63002 19.5484 0 12.5869 0ZM19.9 19.4236L17.2279 21.3941C17.0873 21.4644 16.9466 21.6052 16.7357 21.6052C16.5247 21.6756 16.3841 21.6756 16.2435 21.6756C16.2435 21.6756 16.1731 21.6756 16.1028 21.6756C16.0325 21.6756 15.9622 21.6756 15.8919 21.6756C15.6809 21.6756 15.3293 21.5348 14.8371 21.3941C14.3449 21.2533 13.7823 20.9718 13.0792 20.5496C12.376 20.1273 11.6728 19.5643 10.829 18.7902C9.98516 18.0161 9.14134 17.1012 8.29753 15.8344C7.59435 14.9196 7.0318 14.0047 6.60989 13.1602C6.18799 12.3157 5.8364 11.6119 5.62544 10.9082C5.41449 10.2044 5.20353 9.64141 5.13322 9.07841C5.0629 8.5154 4.99258 8.09315 4.99258 7.6709C4.99258 7.31902 4.99258 6.96715 5.0629 6.75602C5.13322 6.5449 5.13322 6.40415 5.13322 6.40415C5.20353 6.2634 5.27385 6.05227 5.34417 5.91152C5.48481 5.77077 5.55512 5.63002 5.69576 5.55964L8.43816 3.72989C8.64912 3.58914 8.86007 3.51876 9.07102 3.58914C9.21166 3.58914 9.3523 3.65951 9.42262 3.80026C9.49293 3.94101 9.63357 4.01139 9.70389 4.15214L11.0399 8.02278C11.1102 8.2339 11.1102 8.44503 11.0399 8.65615C10.9696 8.86728 10.829 9.07841 10.6883 9.14878L9.70389 9.85253L9.63357 9.92291C9.63357 9.99328 9.56325 9.99328 9.56325 10.0637C9.56325 10.3452 9.63357 10.6267 9.77421 10.9785C9.84452 11.26 10.0555 11.6823 10.2664 12.1045C10.4774 12.5268 10.829 13.0898 11.3212 13.7232C11.7431 14.3565 12.165 14.8492 12.5166 15.2011C12.8682 15.5529 13.2198 15.8344 13.4307 16.0456C13.712 16.2567 13.8527 16.3271 13.9933 16.3974L14.2042 16.4678C14.2042 16.4678 14.2746 16.4678 14.3449 16.4678C14.4152 16.4678 14.4152 16.4678 14.4855 16.3974L15.6809 15.5529C15.8919 15.4122 16.1731 15.3418 16.4544 15.4122C16.6654 15.4122 16.806 15.4826 16.9466 15.6233L20.0406 18.1568C20.2516 18.3679 20.3922 18.5791 20.3922 18.7902C20.2516 19.0013 20.111 19.2124 19.9 19.4236Z" fill="#FF0000"/>
</svg>
